<?xml version="1.0" encoding="UTF-8"?><svg id="Layer_1" xmlns="http://www.w3.org/2000/svg" viewBox="0 0 18 26"><defs><style>.cls-1{fill:#fff;}.cls-2{fill:#0c7ac0;}</style></defs><path class="cls-1" d="M9,0C4.04.01.01,4.04,0,9c0,3.62,4.57,11.61,7.3,16.05.36.59,1,.95,1.69.95h.02c.69,0,1.34-.37,1.69-.95,2.73-4.44,7.3-12.42,7.3-16.05C17.99,4.04,13.96.01,9,0ZM9.85,24.52c-.18.3-.5.48-.85.48s-.67-.18-.85-.48c-2.15-3.5-7.15-12.01-7.15-15.52.01-4.42,3.58-8,8-8s7.99,3.58,8,8c0,3.51-5,12.03-7.15,15.52Z"/><path class="cls-2" d="M9,1C4.58,1,1.01,4.58,1,9c0,3.51,5,12.02,7.15,15.52.18.3.5.48.85.48s.67-.18.85-.48c2.15-3.49,7.15-12.01,7.15-15.52-.01-4.42-3.58-8-8-8ZM9,12.5c-1.93,0-3.5-1.57-3.5-3.5s1.57-3.5,3.5-3.5,3.5,1.57,3.5,3.5-1.57,3.5-3.5,3.5Z"/></svg>