<?xml version="1.0" encoding="UTF-8"?>
<svg xmlns="http://www.w3.org/2000/svg" xmlns:xlink="http://www.w3.org/1999/xlink" version="1.1" viewBox="0 0 16 24">
  <defs>
    <style>
      .cls-1 {
        clip-path: url(#clippath);
      }

      .cls-2 {
        fill: #1a5c95;
      }
    </style>
    <clipPath id="clippath">
      <path class="cls-2" d="M8,11.5c-1.9,0-3.5-1.6-3.5-3.5s1.6-3.5,3.5-3.5,3.5,1.6,3.5,3.5-1.6,3.5-3.5,3.5ZM8,0C3.6,0,0,3.6,0,8,0,11.5,5,20,7.1,23.5c.2.3.5.5.9.5.3,0,.7-.2.9-.5,2.1-3.5,7.1-12,7.1-15.5C16,3.6,12.4,0,8,0Z"/>
    </clipPath>
  </defs>
  <!-- Generator: Adobe Illustrator 28.6.0, SVG Export Plug-In . SVG Version: 1.2.0 Build 709)  -->
  <g>
    <g id="Layer_1">
      <g>
        <path class="cls-2" d="M8,11.5c-1.9,0-3.5-1.6-3.5-3.5s1.6-3.5,3.5-3.5,3.5,1.6,3.5,3.5-1.6,3.5-3.5,3.5ZM8,0C3.6,0,0,3.6,0,8,0,11.5,5,20,7.1,23.5c.2.3.5.5.9.5.3,0,.7-.2.9-.5,2.1-3.5,7.1-12,7.1-15.5C16,3.6,12.4,0,8,0Z"/>
        <g class="cls-1">
          <rect class="cls-2" x="-5" y="-5" width="26" height="34"/>
        </g>
      </g>
    </g>
  </g>
</svg>